# xmcd
#
# Track frame offsets: 
#        150
#        22483
#        32807
#        46794
#        61854
#        73677
#        96354
#        107712
#        129450
#        145642
#        163469
#        182845
#        196264
#        213393
#        242712
#
# Disc length: 3492 seconds
#
# Revision: 8
# Processed by: cddbd v1.5.1PL0 Copyright (c) Steve Scherf et al.
# Submitted via: ExactAudioCopy v0.95b2
#
DISCID=df0da20f
DTITLE=Various Artist - House of Blues - Essential Chicago Blues [CD2
DTITLE=)
DYEAR=1997
DGENRE=Blues
TTITLE0=Willie Dixon - Spoonful
TTITLE1=Junior Wells - Messin' With the Kid
TTITLE2=Howlin' Wolf - Smokestack Lightnin'
TTITLE3=Pinetop Perkins - Pinetop's Boogie Woogie
TTITLE4=Jimmy Reed - Hush Hush
TTITLE5=Eddy Clearwater - Bad Dream
TTITLE6=J. B. Hutto - Too Much Alcohol
TTITLE7=Eddie C. Campbell - She's Nineteen Years Old
TTITLE8=Magic Sam - I Don't Want No Woman
TTITLE9=Jimmy Dawkins - Little Angel Child
TTITLE10=Hubert Sumlin - Sitting On Top of the World
TTITLE11=Eddie Taylor - Bad Boy
TTITLE12=James Cotton - Superharp
TTITLE13=Earl Hooker - Anna Lee
TTITLE14=Big John Wrencher - Maxwell Street Alley Blues
EXTD=LABEL =Platinum Entertainment, Inc.\nID =5141612802\nUPC =7514
EXTD=16-1280-23\nCOPYRIGHT =1997
EXTT0=
EXTT1=
EXTT2=
EXTT3=
EXTT4=
EXTT5=
EXTT6=
EXTT7=
EXTT8=
EXTT9=
EXTT10=
EXTT11=
EXTT12=
EXTT13=
EXTT14=
PLAYORDER=
